<svg width="22" height="20" viewBox="0 0 22 20" fill="none" xmlns="http://www.w3.org/2000/svg">
<path d="M17.75 6.5H1.25C1.05109 6.5 0.860322 6.57902 0.71967 6.71967C0.579018 6.86032 0.5 7.05109 0.5 7.25V11.75C0.502241 13.0269 0.775307 14.2887 1.30117 15.4523C1.82703 16.6158 2.59372 17.6546 3.55063 18.5H1.25C1.05109 18.5 0.860322 18.579 0.71967 18.7197C0.579018 18.8603 0.5 19.0511 0.5 19.25C0.5 19.4489 0.579018 19.6397 0.71967 19.7803C0.860322 19.921 1.05109 20 1.25 20H17.75C17.9489 20 18.1397 19.921 18.2803 19.7803C18.421 19.6397 18.5 19.4489 18.5 19.25C18.5 19.0511 18.421 18.8603 18.2803 18.7197C18.1397 18.579 17.9489 18.5 17.75 18.5H15.4494C16.598 17.482 17.469 16.1887 17.9806 14.7416C18.9332 14.6829 19.8276 14.2632 20.4815 13.568C21.1354 12.8728 21.4997 11.9544 21.5 11V10.25C21.5 9.25544 21.1049 8.30161 20.4016 7.59835C19.6984 6.89509 18.7446 6.5 17.75 6.5ZM20 11C19.9997 11.4852 19.8425 11.9574 19.5519 12.3459C19.2613 12.7345 18.8528 13.0188 18.3875 13.1562C18.4618 12.6912 18.4994 12.221 18.5 11.75V8.12937C18.9386 8.28443 19.3183 8.57161 19.5869 8.95137C19.8555 9.33114 19.9999 9.78483 20 10.25V11ZM8.75 4.25V1.25C8.75 1.05109 8.82902 0.860322 8.96967 0.71967C9.11032 0.579018 9.30109 0.5 9.5 0.5C9.69891 0.5 9.88968 0.579018 10.0303 0.71967C10.171 0.860322 10.25 1.05109 10.25 1.25V4.25C10.25 4.44891 10.171 4.63968 10.0303 4.78033C9.88968 4.92098 9.69891 5 9.5 5C9.30109 5 9.11032 4.92098 8.96967 4.78033C8.82902 4.63968 8.75 4.44891 8.75 4.25ZM11.75 4.25V1.25C11.75 1.05109 11.829 0.860322 11.9697 0.71967C12.1103 0.579018 12.3011 0.5 12.5 0.5C12.6989 0.5 12.8897 0.579018 13.0303 0.71967C13.171 0.860322 13.25 1.05109 13.25 1.25V4.25C13.25 4.44891 13.171 4.63968 13.0303 4.78033C12.8897 4.92098 12.6989 5 12.5 5C12.3011 5 12.1103 4.92098 11.9697 4.78033C11.829 4.63968 11.75 4.44891 11.75 4.25ZM5.75 4.25V1.25C5.75 1.05109 5.82902 0.860322 5.96967 0.71967C6.11032 0.579018 6.30109 0.5 6.5 0.5C6.69891 0.5 6.88968 0.579018 7.03033 0.71967C7.17098 0.860322 7.25 1.05109 7.25 1.25V4.25C7.25 4.44891 7.17098 4.63968 7.03033 4.78033C6.88968 4.92098 6.69891 5 6.5 5C6.30109 5 6.11032 4.92098 5.96967 4.78033C5.82902 4.63968 5.75 4.44891 5.75 4.25Z" fill="#122663"/>
</svg>
