<svg width="30" height="30" viewBox="0 0 30 30" fill="none" xmlns="http://www.w3.org/2000/svg">
<path d="M21.25 7.675V5C21.25 3.625 20.125 2.5 18.75 2.5H11.25C9.875 2.5 8.75 3.625 8.75 5V7.675C6.6 8.2375 5 10.175 5 12.5V22.5C5 25.2625 7.2375 27.5 10 27.5H20C22.7625 27.5 25 25.2625 25 22.5V12.5C25 10.175 23.4 8.2375 21.25 7.675ZM11.25 5H18.75V7.5H16.25C16.25 6.8125 15.6875 6.25 15 6.25C14.3125 6.25 13.75 6.8125 13.75 7.5H11.25V5ZM10 10H20C21.375 10 22.5 11.125 22.5 12.5V16.25H7.5V12.5C7.5 11.125 8.625 10 10 10ZM20 25H10C8.625 25 7.5 23.875 7.5 22.5V18.75H22.5V22.5C22.5 23.875 21.375 25 20 25Z" fill="#122663"/>
</svg>
