<svg width="32" height="32" viewBox="0 0 32 32" fill="none" xmlns="http://www.w3.org/2000/svg">
<path d="M3.83978 30.4C3.83978 31.1892 4.3313 31.68 5.11978 31.68C5.91018 31.68 6.39978 31.1892 6.39978 30.4V18.56H7.67978V30.4C7.67978 31.1879 8.17066 31.68 8.95978 31.68C9.7489 31.68 10.2398 31.1892 10.2398 30.4V10.24H10.8798V17.481C10.8798 19.0138 12.8036 19.0138 12.7998 17.481V9.70308C12.7998 8.00964 11.5799 7.04004 9.59978 7.04004H4.47978C2.67499 7.04004 1.27979 7.8202 1.27979 9.65572V17.92C1.27979 19.2 3.19978 19.2 3.19978 17.92V10.24H3.83978V30.4Z" fill="#122663"/>
<path d="M6.95982 5.92001C8.41786 5.92001 9.59982 4.73805 9.59982 3.28001C9.59982 1.82198 8.41786 0.640015 6.95982 0.640015C5.50179 0.640015 4.31982 1.82198 4.31982 3.28001C4.31982 4.73805 5.50179 5.92001 6.95982 5.92001Z" fill="#122663"/>
<path d="M22.9598 5.92001C24.4179 5.92001 25.5998 4.73805 25.5998 3.28001C25.5998 1.82198 24.4179 0.640015 22.9598 0.640015C21.5018 0.640015 20.3198 1.82198 20.3198 3.28001C20.3198 4.73805 21.5018 5.92001 22.9598 5.92001Z" fill="#122663"/>
<path d="M29.3842 20.8L25.6025 10.4084L25.5807 10.3015C25.5807 10.1498 25.7081 10.0269 25.8668 10.0269C26.0018 10.0269 26.1151 10.1172 26.1452 10.2375L28.7161 16.96C28.887 17.3447 29.5897 17.6 30.0518 17.6C30.6694 17.6 30.7334 16.3872 30.7199 16.32L28.149 9.85156C27.9257 8.36612 26.4255 7.04004 24.7135 7.04004H21.3631C19.6511 7.04004 18.0402 8.36612 17.8162 9.85156L15.3606 16.4C15.3049 16.5274 15.3606 17.6404 16.0287 17.6404C16.5478 17.6404 17.2383 17.4394 17.3638 16.9805L19.8438 10.2196C19.8648 10.1649 19.9018 10.1178 19.9499 10.0844C19.9981 10.0511 20.0552 10.033 20.1138 10.0327C20.2713 10.0327 20.3986 10.153 20.3986 10.304L20.3814 10.4007L16.6962 20.8013C16.6886 20.832 16.6962 21.5693 16.6962 21.6007C16.6962 21.8221 17.2313 22.4007 17.463 22.4007H19.8399V30.4615C19.8399 31.1271 20.4262 31.6807 21.1199 31.6807C21.8137 31.6807 22.3999 31.1264 22.3999 30.4615V22.0743C22.3999 21.8932 23.6799 21.8989 23.6799 22.08V30.4C23.6799 31.0656 24.2668 31.68 24.9599 31.68C25.655 31.68 26.2399 31.065 26.2399 30.4V22.4H28.7161C28.9478 22.4 29.3842 21.8215 29.3842 21.6C29.3842 21.5488 29.4028 20.8442 29.3842 20.8Z" fill="#122663"/>
</svg>
