<svg width="26" height="30" viewBox="0 0 26 30" fill="none" xmlns="http://www.w3.org/2000/svg">
<circle cx="13" cy="13" r="13" fill="white"/>
<path d="M20.8999 12.2454C20.8365 12.1432 20.7413 12.0498 20.6198 11.9706L13.9504 7.80737C13.826 7.72974 13.6784 7.66816 13.5159 7.62614C13.3534 7.58413 13.1792 7.5625 13.0033 7.5625C12.6481 7.5625 12.3074 7.65058 12.0563 7.80737C11.9319 7.88501 11.8332 7.97718 11.7659 8.07861C11.6986 8.18004 11.664 8.28876 11.664 8.39855C11.664 8.62029 11.8051 8.83294 12.0563 8.98973L16.4581 11.7291H6.33389C5.98012 11.7291 5.64084 11.8169 5.39069 11.973C5.14053 12.1292 5 12.341 5 12.5618C5 12.7826 5.14053 12.9944 5.39069 13.1506C5.64084 13.3067 5.98012 13.3944 6.33389 13.3944H16.4581L12.0563 16.1338C11.9312 16.2113 11.832 16.3033 11.7643 16.4048C11.6966 16.5063 11.6617 16.6151 11.6617 16.725C11.6617 16.8349 11.6966 16.9438 11.7643 17.0452C11.832 17.1467 11.9312 17.2388 12.0563 17.3162C12.1803 17.3942 12.3278 17.4562 12.4903 17.4985C12.6529 17.5407 12.8272 17.5625 13.0033 17.5625C13.1794 17.5625 13.3538 17.5407 13.5163 17.4985C13.6789 17.4562 13.8264 17.3942 13.9504 17.3162L20.6198 13.153C20.7413 13.0738 20.8365 12.9804 20.8999 12.8782C21.0334 12.6755 21.0334 12.4481 20.8999 12.2454Z" fill="#FB6D1A"/>
</svg>
