<svg width="36" height="30" viewBox="0 0 36 30" fill="none" xmlns="http://www.w3.org/2000/svg">
<path d="M33.8749 14.3658C33.7956 14.1614 33.6766 13.9746 33.5248 13.8162L25.188 5.48975C25.0325 5.33448 24.848 5.21131 24.6448 5.12728C24.4417 5.04325 24.224 5 24.0042 5C23.5601 5 23.1343 5.17617 22.8203 5.48975C22.6649 5.64502 22.5416 5.82935 22.4574 6.03222C22.3733 6.23509 22.33 6.45252 22.33 6.67211C22.33 7.11558 22.5064 7.54089 22.8203 7.85447L28.3226 13.3333H15.6674C15.2251 13.3333 14.801 13.5087 14.4884 13.821C14.1757 14.1333 14 14.5569 14 14.9986C14 15.4402 14.1757 15.8638 14.4884 16.1761C14.801 16.4884 15.2251 16.6639 15.6674 16.6639H28.3226L22.8203 22.1427C22.6641 22.2975 22.54 22.4817 22.4554 22.6846C22.3707 22.8875 22.3271 23.1052 22.3271 23.3251C22.3271 23.5449 22.3707 23.7626 22.4554 23.9655C22.54 24.1684 22.6641 24.3526 22.8203 24.5074C22.9753 24.6635 23.1597 24.7874 23.3629 24.8719C23.5661 24.9565 23.784 25 24.0042 25C24.2243 25 24.4422 24.9565 24.6454 24.8719C24.8486 24.7874 25.033 24.6635 25.188 24.5074L33.5248 16.1809C33.6766 16.0226 33.7956 15.8358 33.8749 15.6314C34.0417 15.226 34.0417 14.7712 33.8749 14.3658Z" fill="white"/>
</svg>
