<svg width="30" height="30" viewBox="0 0 30 30" fill="none" xmlns="http://www.w3.org/2000/svg">
<path d="M23.75 11.875H23.35L21.7875 7.97502C21.5084 7.28159 21.0285 6.68737 20.4093 6.26865C19.7902 5.84992 19.06 5.62579 18.3125 5.62502H10.8125C9.94411 5.62253 9.10178 5.9215 8.42927 6.47091C7.75677 7.02031 7.29578 7.78608 7.125 8.63752L6.475 11.875H6.25C5.25544 11.875 4.30161 12.2701 3.59835 12.9734C2.89509 13.6766 2.5 14.6305 2.5 15.625V19.375C2.5 19.7065 2.6317 20.0245 2.86612 20.2589C3.10054 20.4933 3.41848 20.625 3.75 20.625H5C5 21.6196 5.39509 22.5734 6.09835 23.2767C6.80161 23.9799 7.75544 24.375 8.75 24.375C9.74456 24.375 10.6984 23.9799 11.4017 23.2767C12.1049 22.5734 12.5 21.6196 12.5 20.625H17.5C17.5 21.6196 17.8951 22.5734 18.5983 23.2767C19.3016 23.9799 20.2554 24.375 21.25 24.375C22.2446 24.375 23.1984 23.9799 23.9017 23.2767C24.6049 22.5734 25 21.6196 25 20.625H26.25C26.5815 20.625 26.8995 20.4933 27.1339 20.2589C27.3683 20.0245 27.5 19.7065 27.5 19.375V15.625C27.5 14.6305 27.1049 13.6766 26.4017 12.9734C25.6984 12.2701 24.7446 11.875 23.75 11.875ZM16.25 8.12502H18.3125C18.5607 8.12726 18.8026 8.20336 19.0074 8.34361C19.2123 8.48385 19.3707 8.6819 19.4625 8.91252L20.65 11.875H16.25V8.12502ZM9.575 9.12502C9.63344 8.83842 9.79053 8.58139 10.0189 8.39868C10.2473 8.21596 10.5326 8.11912 10.825 8.12502H13.75V11.875H9.025L9.575 9.12502ZM8.75 21.875C8.50277 21.875 8.2611 21.8017 8.05554 21.6644C7.84998 21.527 7.68976 21.3318 7.59515 21.1034C7.50054 20.875 7.47579 20.6236 7.52402 20.3812C7.57225 20.1387 7.6913 19.9159 7.86612 19.7411C8.04093 19.5663 8.26366 19.4473 8.50614 19.399C8.74861 19.3508 8.99995 19.3756 9.22835 19.4702C9.45676 19.5648 9.65199 19.725 9.78934 19.9306C9.92669 20.1361 10 20.3778 10 20.625C10 20.9565 9.8683 21.2745 9.63388 21.5089C9.39946 21.7433 9.08152 21.875 8.75 21.875ZM21.25 21.875C21.0028 21.875 20.7611 21.8017 20.5555 21.6644C20.35 21.527 20.1898 21.3318 20.0951 21.1034C20.0005 20.875 19.9758 20.6236 20.024 20.3812C20.0723 20.1387 20.1913 19.9159 20.3661 19.7411C20.5409 19.5663 20.7637 19.4473 21.0061 19.399C21.2486 19.3508 21.4999 19.3756 21.7284 19.4702C21.9568 19.5648 22.152 19.725 22.2893 19.9306C22.4267 20.1361 22.5 20.3778 22.5 20.625C22.5 20.9565 22.3683 21.2745 22.1339 21.5089C21.8995 21.7433 21.5815 21.875 21.25 21.875ZM25 18.125H24.025C23.6735 17.7383 23.2451 17.4294 22.7672 17.2179C22.2894 17.0065 21.7726 16.8973 21.25 16.8973C20.7274 16.8973 20.2106 17.0065 19.7328 17.2179C19.2549 17.4294 18.8265 17.7383 18.475 18.125H11.525C11.1735 17.7383 10.7451 17.4294 10.2672 17.2179C9.78935 17.0065 9.27256 16.8973 8.75 16.8973C8.22744 16.8973 7.71065 17.0065 7.23277 17.2179C6.75489 17.4294 6.32648 17.7383 5.975 18.125H5V15.625C5 15.2935 5.1317 14.9756 5.36612 14.7411C5.60054 14.5067 5.91848 14.375 6.25 14.375H23.75C24.0815 14.375 24.3995 14.5067 24.6339 14.7411C24.8683 14.9756 25 15.2935 25 15.625V18.125Z" fill="#122663"/>
</svg>
