<svg width="24" height="24" viewBox="0 0 24 24" fill="none" xmlns="http://www.w3.org/2000/svg">
<path fill-rule="evenodd" clip-rule="evenodd" d="M18.1834 16.3908C21.2867 12.4053 21.0063 6.63932 17.3426 2.9755C13.3752 -0.991833 6.94285 -0.991833 2.97551 2.9755C-0.991837 6.94284 -0.991837 13.3752 2.97551 17.3425C6.63933 21.0063 12.4054 21.2866 16.3909 18.1834C16.4081 18.2028 16.426 18.2219 16.4445 18.2404L21.8322 23.628C22.3281 24.124 23.1322 24.124 23.6281 23.628C24.124 23.1321 24.124 22.3281 23.6281 21.8321L18.2405 16.4446C18.2218 16.426 18.2028 16.4081 18.1834 16.3908ZM15.5466 4.77138C18.5222 7.74687 18.5222 12.5711 15.5466 15.5466C12.5711 18.5221 7.74688 18.5221 4.77138 15.5466C1.79587 12.5711 1.79587 7.74687 4.77138 4.77138C7.74688 1.79587 12.5711 1.79587 15.5466 4.77138Z" fill="#718096"/>
</svg>
